<svg xmlns="http://www.w3.org/2000/svg" viewBox="0 0 640 360" role="img" aria-labelledby="title desc">
  <title id="title">FlexVector Architecture Thumbnail</title>
  <desc id="desc">A compact diagram-style thumbnail for the FlexVector publication.</desc>
  <rect width="640" height="360" fill="#f7f9fc"/>
  <rect x="28" y="28" width="584" height="304" rx="12" fill="#ffffff" stroke="#b7c4d6" stroke-width="2"/>
  <g fill="none" stroke="#1b7886" stroke-width="4">
    <path d="M132 180h88"/>
    <path d="M420 180h88"/>
    <path d="M320 104v48"/>
    <path d="M320 208v48"/>
  </g>
  <g font-family="Arial, Helvetica, sans-serif" text-anchor="middle">
    <rect x="64" y="132" width="120" height="96" rx="8" fill="#eaf7f7" stroke="#1b9aaa" stroke-width="2"/>
    <text x="124" y="172" fill="#153243" font-size="20" font-weight="700">Sparse</text>
    <text x="124" y="199" fill="#4c5f70" font-size="16">Graph</text>
    <rect x="220" y="116" width="200" height="128" rx="10" fill="#16213a" stroke="#33d0d8" stroke-width="3"/>
    <text x="320" y="166" fill="#ffffff" font-size="28" font-weight="700">FlexVector</text>
    <text x="320" y="202" fill="#9ee8ed" font-size="17">Flexible VRF</text>
    <rect x="456" y="132" width="120" height="96" rx="8" fill="#fff6df" stroke="#e1b949" stroke-width="2"/>
    <text x="516" y="172" fill="#493a12" font-size="20" font-weight="700">SpMM</text>
    <text x="516" y="199" fill="#6e5a1b" font-size="16">Output</text>
    <rect x="254" y="54" width="132" height="50" rx="8" fill="#e9eef8" stroke="#7c8dad" stroke-width="2"/>
    <text x="320" y="86" fill="#203047" font-size="17" font-weight="700">Scheduler</text>
    <rect x="254" y="256" width="132" height="50" rx="8" fill="#e9eef8" stroke="#7c8dad" stroke-width="2"/>
    <text x="320" y="288" fill="#203047" font-size="17" font-weight="700">PE Array</text>
  </g>
  <g fill="#33d0d8">
    <polygon points="214,180 198,170 198,190"/>
    <polygon points="514,180 498,170 498,190"/>
    <polygon points="320,158 310,142 330,142"/>
    <polygon points="320,250 310,234 330,234"/>
  </g>
</svg>
